<?xml version="1.0" encoding="UTF-8"?>
<svg id="Ebene_1" xmlns="http://www.w3.org/2000/svg" version="1.1" viewBox="0 0 841.92 595.44">
  <!-- Generator: Adobe Illustrator 29.5.1, SVG Export Plug-In . SVG Version: 2.1.0 Build 141)  -->
  <defs>
    <style>
      .st0 {
        fill: #e53d18;
      }

      .st1 {
        fill: #032a68;
      }

      .st2 {
        fill: #fff;
      }

      .st3 {
        fill: #fffefe;
      }

      .st4 {
        fill: #f08209;
      }

      .st5 {
        fill: #002866;
      }
    </style>
  </defs>
  <path class="st2" d="M841.92,0v595.44H0V0h841.92ZM280.8,60.46l-125.57,150.68,125.19,150.53,126.14.1c20.48-23.4,39.84-47.98,60.01-71.72.87-1.03,2.04-2.8,3.35-3.13,20.84,24.98,41.68,49.97,62.64,74.85h125.52l-125.28-150.66,125.28-151.14h-125.52c-20.78,25.31-42.18,50.24-63.12,75.33l-62.74-75.34-124.27-.02-1.63.51ZM106.46,439.17c-56.36,3.99-55.8,84.19.34,87.66,13.02.8,28.74-3.68,36.68-14.56l-9.87-9.39c-4.37,3.88-9.11,7.58-14.96,8.94-21.91,5.1-40.04-10.15-38.01-32.72,1.99-22.14,27.81-32.65,46.03-21.56,2.7,1.64,4.46,3.63,6.93,5.44,1.18-1.55,10.08-8.52,9.87-9.74-8.73-10.68-23.55-15.03-37.02-14.08ZM721.68,440.46h-17.52l29.29,41.49-31.21,43.43h18l22.57-31.67c.7-.18,2.07,2.11,2.55,2.73,6.77,8.83,12.67,18.78,19.61,27.44.35.43.59.94.64,1.5h18.72l-31.61-43.82,29.21-41.11h-17.28l-20.24,28.95-1.12.8-21.6-29.75ZM393.6,446.22h-15.36v14.39h-10.56v12h10.56v35.27c0,15.69,18.1,21.12,30.82,17.37.93-.27,5.76-2.33,6.05-2.83.73-1.24-3.47-8.98-3.78-10.93-4.82,1.92-11.96,4.23-15.81-.74-.57-.74-1.92-3.57-1.92-4.32v-33.11c0-.05.67-.72.72-.72h16.56v-12h-17.28v-14.39ZM643.68,446.22h-15.36v14.39h-10.56v12h10.56v35.27c0,15.69,18.1,21.12,30.82,17.37.93-.27,5.76-2.33,6.05-2.83.73-1.24-3.47-8.98-3.78-10.93-4.25,1.49-7.83,3.28-12.45,1.66-2.41-.85-5.28-4.2-5.28-6.71v-33.11c0-.05.67-.72.72-.72h16.56v-12h-17.28v-14.39ZM180.86,459.8c-22.84,1.62-36.96,21.43-30.49,43.63,8.97,30.78,57.96,30.61,66.45-.48,6.66-24.39-11.1-44.91-35.96-43.14ZM294.72,525.39v-42.94c0-1.43-1.53-6.37-2.17-7.91-6.55-15.84-27.68-18.3-41.35-10.65l-5.92,4.4v-7.68h-14.4v64.77h15.36v-37.19c0-8.29,8.8-14.73,16.57-15.11s16.55,4.39,16.55,12.71v39.58h15.36ZM359.94,464.99c-.24-.38-6.7-2.78-7.72-3.07-15.26-4.39-45.13-3.26-45.02,18.61.11,20.68,24.72,15.96,36.33,21.26,7.28,3.32,3.86,9.79-2.71,11.38-10.01,2.43-20.81-1.28-29.77-5.54-.26,2.27-6.27,10.29-5.23,11.94.25.39,7.39,3.41,8.46,3.78,16.37,5.7,50.57,4.93,48.12-19.79-1.74-17.56-25.12-13.71-35.99-18.72-7.68-3.53-3.49-10.58,3.24-12.11,8.15-1.85,17.5.36,24.79,4.16,1.12-1.57,6.25-10.74,5.51-11.9ZM462.72,459.65c-8.73.09-17.5,2.5-23.04,9.6v-8.64h-14.88v64.77h15.36v-33.35c0-1.77,1.11-5.99,1.83-7.76,3.37-8.21,12.37-11.56,20.73-9.75v-14.87ZM611.46,510.57c-.34-.54-9.89-5.15-11.23-6.18-9.6,14.73-33.45,10.27-35.62-7.68-2.76-22.87,22.2-32.45,35.68-15.01l11.49-6.68c-8.74-18.3-36.38-19.39-50.9-7.67-17.64,14.24-15.49,42.98,4.22,54.29,11.29,6.47,29.01,6.74,39.43-1.53,1.5-1.19,8.1-7.66,6.91-9.53ZM487.68,460.61h-15.36c1.97,23.24-9.43,63.38,25.18,65.75,9.02.62,17.54-2.09,23.78-8.66v7.68h14.4v-64.77h-14.88v33.83c0,3.25-1.66,8.65-3.44,11.44-5.78,9.07-22.7,9.98-27.7-.46-.72-1.51-1.98-5.62-1.98-7.14v-37.66ZM701.28,485.56h-33.12v12.47h33.12v-12.47Z"/>
  <path class="st5" d="M343.68,135.79l-62.41,75.08,1.46,2.39c20.19,24.33,40.71,48.42,60.95,72.7,21.01,25.22,41.8,50.65,62.88,75.81l-126.14-.1-125.19-150.53,125.57-150.68c.65.36,1.2.86,1.69,1.43,20.8,24.24,40.77,49.4,61.19,73.9Z"/>
  <path class="st4" d="M469.44,135.31c20.94-25.08,42.34-50.02,63.12-75.33h125.52l-125.28,151.14h-125.76c20.82,25.38,41.85,50.61,62.88,75.81-1.31.33-2.47,2.1-3.35,3.13-20.17,23.74-39.53,48.32-60.01,71.72-21.08-25.16-41.87-50.59-62.88-75.81,1.88-1.37,3.31-3.29,4.79-5.05,19.59-23.21,38.73-47.04,58.09-70.28,20.92-25.1,41.93-50.23,62.88-75.33Z"/>
  <path class="st0" d="M532.8,211.11l125.28,150.66h-125.52c-20.96-24.88-41.8-49.87-62.64-74.85s-42.06-50.43-62.88-75.8h125.76Z"/>
  <path class="st0" d="M280.8,60.46l1.63-.51,124.27.02,62.74,75.34c-20.95,25.1-41.96,50.23-62.88,75.33-20.79-24.44-41.12-49.27-61.67-73.92-.37-.44-1-.68-1.21-.93-20.42-24.5-40.39-49.66-61.19-73.9-.48-.56-1.03-1.07-1.69-1.43Z"/>
  <path class="st1" d="M721.68,440.46l21.6,29.75,1.12-.8,20.24-28.95h17.28l-29.21,41.11,31.61,43.82h-18.72c-.05-.56-.29-1.07-.64-1.5-6.94-8.66-12.84-18.61-19.61-27.44-.47-.62-1.84-2.91-2.55-2.73l-22.57,31.67h-18l31.21-43.43-29.29-41.49h17.52Z"/>
  <path class="st1" d="M106.46,439.17c13.47-.95,28.3,3.39,37.02,14.08.21,1.22-8.69,8.19-9.87,9.74-2.47-1.81-4.23-3.8-6.93-5.44-18.22-11.08-44.04-.58-46.03,21.56-2.03,22.56,16.1,37.81,38.01,32.72,5.85-1.36,10.59-5.05,14.96-8.94l9.87,9.39c-7.94,10.88-23.66,15.37-36.68,14.56-56.15-3.46-56.7-83.67-.34-87.66Z"/>
  <path class="st1" d="M180.86,459.8c24.86-1.76,42.62,18.75,35.96,43.14-8.49,31.1-57.48,31.26-66.45.48-6.47-22.19,7.65-42,30.49-43.63ZM182.31,472.75c-25.1,1.35-23.62,41.51,1.78,40.67,25.68-.85,24.82-42.1-1.78-40.67Z"/>
  <path class="st1" d="M294.72,525.39h-15.36v-39.58c0-8.32-9.18-13.07-16.55-12.71-7.77.38-16.57,6.81-16.57,15.11v37.19h-15.36v-64.77h14.4v7.68l5.92-4.4c13.67-7.65,34.8-5.19,41.35,10.65.64,1.54,2.17,6.48,2.17,7.91v42.94Z"/>
  <path class="st1" d="M487.68,460.61v37.66c0,1.52,1.25,5.63,1.98,7.14,5.01,10.45,21.93,9.53,27.7.46,1.77-2.78,3.44-8.18,3.44-11.44v-33.83h14.88v64.77h-14.4v-7.68c-6.24,6.56-14.76,9.27-23.78,8.66-34.61-2.37-23.21-42.51-25.18-65.75h15.36Z"/>
  <path class="st1" d="M359.94,464.99c.74,1.16-4.39,10.33-5.51,11.9-7.29-3.8-16.64-6.01-24.79-4.16-6.73,1.53-10.92,8.58-3.24,12.11,10.88,5.01,34.25,1.16,35.99,18.72,2.45,24.73-31.75,25.49-48.12,19.79-1.06-.37-8.21-3.39-8.46-3.78-1.04-1.65,4.97-9.67,5.23-11.94,8.96,4.25,19.76,7.96,29.77,5.54,6.57-1.59,9.99-8.07,2.71-11.38-11.61-5.3-36.22-.58-36.33-21.26-.12-21.87,29.75-22.99,45.02-18.61,1.03.29,7.48,2.69,7.72,3.07Z"/>
  <path class="st1" d="M611.46,510.57c1.19,1.86-5.41,8.33-6.91,9.53-10.42,8.27-28.15,8-39.43,1.53-19.72-11.3-21.87-40.05-4.22-54.29,14.51-11.72,42.15-10.63,50.9,7.67l-11.49,6.68c-13.48-17.43-38.45-7.86-35.68,15.01,2.17,17.95,26.02,22.41,35.62,7.68,1.34,1.04,10.88,5.64,11.23,6.18Z"/>
  <path class="st1" d="M393.6,446.22v14.39h17.28v12h-16.56c-.05,0-.72.67-.72.72v33.11c0,.74,1.35,3.57,1.92,4.32,3.85,4.98,11,2.66,15.81.74.31,1.95,4.51,9.69,3.78,10.93-.29.5-5.12,2.55-6.05,2.83-12.72,3.74-30.82-1.69-30.82-17.37v-35.27h-10.56v-12h10.56v-14.39h15.36Z"/>
  <path class="st1" d="M643.68,446.22v14.39h17.28v12h-16.56c-.05,0-.72.67-.72.72v33.11c0,2.51,2.87,5.87,5.28,6.71,4.62,1.62,8.2-.16,12.45-1.66.31,1.95,4.51,9.69,3.78,10.93-.29.5-5.12,2.55-6.05,2.83-12.72,3.74-30.82-1.69-30.82-17.37v-35.27h-10.56v-12h10.56v-14.39h15.36Z"/>
  <path class="st1" d="M462.72,459.65v14.87c-8.36-1.81-17.36,1.54-20.73,9.75-.73,1.77-1.83,6-1.83,7.76v33.35h-15.36v-64.77h14.88v8.64c5.54-7.1,14.31-9.51,23.04-9.6Z"/>
  <rect class="st5" x="668.16" y="485.56" width="33.12" height="12.47"/>
  <path class="st3" d="M406.56,210.64c-19.36,23.24-38.51,47.07-58.09,70.28-1.48,1.76-2.91,3.68-4.79,5.05-20.24-24.29-40.75-48.37-60.95-72.7l-1.46-2.39,62.41-75.08c.21.25.84.49,1.21.93,20.55,24.65,40.88,49.48,61.67,73.92Z"/>
  <path class="st3" d="M182.31,472.75c26.61-1.44,27.47,39.82,1.78,40.67-25.41.84-26.89-39.31-1.78-40.67Z"/>
</svg>