<svg preserveAspectRatio="xMinYMin meet" viewBox="0 0 224 145" xmlns="http://www.w3.org/2000/svg">
<g>
	<g>
		<polygon fill="#E53D17" points="103.767,44.222 68.333,1.702 103.766,1.702 121.467,22.943 		"/>
		<g>
			<polygon fill="#F08109" points="103.766,44.222 86.077,65.444 103.766,86.737 121.467,65.485 			"/>
			<polygon fill="#F08109" points="139.199,1.702 103.766,44.222 139.199,44.222 174.633,1.702 			"/>
		</g>
		<polygon fill="#E53D17" points="139.199,86.737 103.767,44.222 139.199,44.222 174.633,86.737 		"/>
		<polygon fill="#0A3B93" points="68.333,44.222 68.333,44.222 86.035,22.979 68.333,1.702 32.899,44.222 32.9,44.222 
			68.333,86.737 103.766,86.737 		"/>
	</g>
	<g>
		<path fill="#1A1A18" d="M201.746,142.495l9.369-12.843h-1.21l9.446,12.843h3.357l-11.164-15.146v2.029l10.422-14.209h-3.123
			l-8.86,12.062l1.288-0.039l-8.861-12.023h-3.318l10.539,14.404v-2.225l-11.203,15.146H201.746z M198.937,128.952h-10.228v2.42
			h10.228V128.952z M184.65,122.002h-12.686v2.303h12.686V122.002z M184.006,142.34c0.768-0.236,1.426-0.6,1.972-1.094l-0.976-1.99
			c-0.808,0.701-1.822,1.053-3.045,1.053c-1.146,0-2.023-0.324-2.636-0.976c-0.61-0.649-0.917-1.573-0.917-2.772v-19.088h-2.771
			v19.244c0,1.9,0.521,3.371,1.562,4.412s2.524,1.561,4.45,1.561C182.45,142.689,183.238,142.573,184.006,142.34 M166.371,141.655
			c1.404-0.688,2.51-1.698,3.317-3.024l-2.069-1.406c-0.701,1.016-1.574,1.771-2.615,2.265c-1.041,0.495-2.172,0.741-3.396,0.741
			c-1.458,0-2.772-0.331-3.942-0.995c-1.172-0.663-2.096-1.593-2.771-2.791c-0.678-1.196-1.016-2.603-1.016-4.216
			s0.338-3.018,1.016-4.215c0.676-1.197,1.6-2.129,2.771-2.791c1.17-0.664,2.484-0.996,3.942-0.996c1.224,0,2.354,0.248,3.396,0.742
			s1.914,1.262,2.615,2.303l2.069-1.405c-0.808-1.353-1.913-2.368-3.317-3.045c-1.406-0.677-2.98-1.015-4.724-1.015
			c-2.03,0-3.845,0.442-5.446,1.326c-1.6,0.885-2.855,2.108-3.766,3.67c-0.912,1.562-1.367,3.371-1.367,5.426
			c0,2.029,0.455,3.832,1.367,5.406c0.91,1.576,2.166,2.811,3.766,3.709c1.602,0.897,3.416,1.346,5.446,1.346
			C163.391,142.689,164.965,142.346,166.371,141.655 M141.037,141.422c1.366-0.846,2.375-2.023,3.025-3.533l-0.43-1.015v5.621h2.654
			v-20.493h-2.771v10.734c0,1.561-0.28,2.902-0.84,4.021s-1.365,1.971-2.42,2.555c-1.054,0.587-2.297,0.88-3.728,0.88
			c-1.952,0-3.468-0.554-4.548-1.659s-1.62-2.752-1.62-4.938v-11.594h-2.771v11.905c0,1.952,0.356,3.578,1.072,4.879
			c0.717,1.302,1.725,2.278,3.026,2.929c1.3,0.65,2.823,0.975,4.567,0.975C138.076,142.689,139.67,142.268,141.037,141.422
			 M116.121,142.495v-10.462c0-2.42,0.611-4.287,1.836-5.602c1.221-1.313,2.914-1.971,5.073-1.971c0.104,0,0.208,0.006,0.312,0.02
			c0.104,0.013,0.209,0.02,0.313,0.02v-2.693c-2.005,0-3.683,0.41-5.036,1.229c-1.353,0.819-2.316,2.011-2.888,3.571l0.272,0.976
			v-5.581h-2.654v20.493H116.121z M108.119,122.002H95.434v2.303h12.686V122.002z M107.476,142.34
			c0.767-0.236,1.425-0.6,1.971-1.094l-0.976-1.99c-0.807,0.701-1.821,1.053-3.045,1.053c-1.146,0-2.023-0.324-2.635-0.976
			c-0.611-0.649-0.918-1.573-0.918-2.772v-19.088h-2.771v19.244c0,1.9,0.521,3.371,1.562,4.412s2.523,1.561,4.449,1.561
			C105.92,142.689,106.707,142.573,107.476,142.34 M89.473,141.969c1.262-0.481,2.225-1.158,2.889-2.031
			c0.664-0.871,0.995-1.905,0.995-3.102c0-1.119-0.241-2.025-0.722-2.714c-0.482-0.69-1.119-1.223-1.914-1.601
			c-0.793-0.377-1.664-0.676-2.614-0.898c-0.95-0.22-1.899-0.408-2.849-0.566c-0.951-0.155-1.822-0.356-2.616-0.604
			c-0.794-0.247-1.431-0.591-1.912-1.034c-0.481-0.441-0.724-1.054-0.724-1.835c0-0.987,0.437-1.801,1.309-2.438
			c0.872-0.639,2.23-0.957,4.079-0.957c1.041,0,2.082,0.137,3.123,0.41c1.041,0.272,2.016,0.722,2.928,1.347l1.21-2.226
			c-0.859-0.572-1.952-1.035-3.279-1.386c-1.326-0.351-2.654-0.526-3.981-0.526c-1.744,0-3.22,0.254-4.431,0.761
			c-1.209,0.508-2.127,1.204-2.752,2.089s-0.937,1.887-0.937,3.005c0,1.171,0.24,2.108,0.722,2.812s1.113,1.256,1.894,1.658
			c0.78,0.404,1.646,0.709,2.596,0.918s1.906,0.391,2.869,0.547s1.835,0.344,2.616,0.565c0.779,0.222,1.41,0.546,1.893,0.976
			c0.48,0.43,0.723,1.021,0.723,1.776c0,1.015-0.431,1.828-1.289,2.438c-0.858,0.613-2.264,0.918-4.215,0.918
			c-1.433,0-2.799-0.228-4.1-0.682c-1.301-0.455-2.368-0.996-3.201-1.621l-1.249,2.187c0.859,0.728,2.043,1.334,3.552,1.815
			c1.51,0.481,3.11,0.721,4.803,0.721C86.682,142.689,88.211,142.45,89.473,141.969 M56.504,142.495v-10.774
			c0-1.561,0.292-2.895,0.878-4c0.585-1.106,1.418-1.953,2.498-2.537c1.08-0.586,2.348-0.879,3.806-0.879
			c1.952,0,3.467,0.554,4.548,1.658c1.079,1.107,1.62,2.74,1.62,4.899v11.633h2.771V130.59c0-1.978-0.358-3.617-1.073-4.918
			c-0.716-1.302-1.705-2.271-2.967-2.91c-1.263-0.637-2.726-0.955-4.392-0.955c-1.978,0-3.682,0.422-5.113,1.269
			c-1.432,0.847-2.473,2.011-3.123,3.493l0.429,1.054v-5.62h-2.654v20.493H56.504z M34.625,139.235
			c-1.145-0.663-2.056-1.601-2.732-2.81c-0.677-1.211-1.015-2.609-1.015-4.197c0-1.613,0.338-3.018,1.015-4.215
			c0.676-1.197,1.587-2.129,2.732-2.791c1.145-0.664,2.446-0.996,3.904-0.996c1.457,0,2.758,0.332,3.903,0.996
			c1.145,0.662,2.05,1.594,2.713,2.791c0.664,1.197,0.996,2.602,0.996,4.215c0,1.588-0.332,2.986-0.996,4.197
			c-0.663,1.209-1.568,2.146-2.713,2.81c-1.146,0.664-2.459,0.995-3.942,0.995C37.058,140.23,35.77,139.899,34.625,139.235
			 M43.876,141.344c1.587-0.898,2.83-2.133,3.728-3.709c0.897-1.574,1.346-3.377,1.346-5.406c0-2.055-0.449-3.864-1.346-5.426
			c-0.898-1.562-2.135-2.785-3.709-3.67c-1.575-0.884-3.376-1.326-5.406-1.326c-2.004,0-3.787,0.442-5.348,1.326
			c-1.561,0.885-2.798,2.108-3.708,3.67c-0.911,1.562-1.367,3.371-1.367,5.426c0,2.029,0.456,3.832,1.367,5.406
			c0.91,1.576,2.153,2.811,3.728,3.709c1.574,0.897,3.35,1.346,5.328,1.346C40.492,142.689,42.289,142.241,43.876,141.344
			 M21.373,141.715c1.743-0.677,3.214-1.68,4.411-3.007l-1.835-1.834c-1.119,1.146-2.355,1.978-3.708,2.498
			s-2.811,0.781-4.372,0.781c-1.639,0-3.162-0.28-4.567-0.841c-1.405-0.559-2.629-1.352-3.669-2.381
			c-1.041-1.027-1.855-2.225-2.44-3.59c-0.586-1.367-0.878-2.869-0.878-4.51c0-1.639,0.292-3.143,0.878-4.508
			c0.585-1.366,1.399-2.562,2.44-3.591c1.04-1.028,2.264-1.822,3.669-2.382c1.405-0.56,2.928-0.84,4.567-0.84
			c1.561,0,3.019,0.254,4.372,0.762s2.589,1.334,3.708,2.479l1.835-1.835c-1.197-1.327-2.668-2.321-4.411-2.985
			c-1.744-0.664-3.605-0.996-5.582-0.996c-2.056,0-3.956,0.346-5.699,1.035c-1.744,0.689-3.26,1.658-4.548,2.908
			s-2.29,2.719-3.005,4.41c-0.716,1.691-1.074,3.54-1.074,5.543c0,2.006,0.358,3.852,1.074,5.543
			c0.715,1.692,1.71,3.162,2.986,4.411c1.274,1.249,2.784,2.22,4.528,2.908c1.743,0.69,3.643,1.034,5.699,1.034
			C17.755,142.729,19.628,142.391,21.373,141.715"/>
		<g>
			<path d="M68.585,122.762c-1.263-0.637-2.726-0.955-4.392-0.955c-1.978,0-3.682,0.422-5.113,1.269
				c-1.159,0.685-2.048,1.587-2.694,2.688v-3.762h-2.654v20.493h2.772v-10.774c0-1.561,0.292-2.895,0.878-4
				c0.585-1.106,1.418-1.953,2.498-2.537c1.08-0.586,2.348-0.879,3.806-0.879c1.952,0,3.467,0.554,4.548,1.658
				c1.079,1.107,1.62,2.74,1.62,4.899v11.633h2.771V130.59c0-1.978-0.358-3.617-1.073-4.918
				C70.836,124.37,69.847,123.4,68.585,122.762z"/>
			<path d="M90.721,132.521c-0.793-0.377-1.664-0.676-2.614-0.898c-0.95-0.22-1.899-0.408-2.849-0.566
				c-0.951-0.155-1.822-0.356-2.616-0.604c-0.794-0.247-1.431-0.591-1.912-1.034c-0.481-0.441-0.724-1.054-0.724-1.835
				c0-0.987,0.437-1.801,1.309-2.438c0.872-0.639,2.23-0.957,4.079-0.957c1.041,0,2.082,0.137,3.123,0.41
				c1.041,0.272,2.016,0.722,2.928,1.347l1.21-2.226c-0.859-0.572-1.952-1.035-3.279-1.386c-1.326-0.351-2.654-0.526-3.981-0.526
				c-1.744,0-3.22,0.254-4.431,0.761c-1.209,0.508-2.127,1.204-2.752,2.089s-0.937,1.887-0.937,3.005
				c0,1.171,0.24,2.108,0.722,2.812s1.113,1.256,1.894,1.658c0.78,0.404,1.646,0.709,2.596,0.918s1.906,0.391,2.869,0.547
				s1.835,0.344,2.616,0.565c0.779,0.222,1.41,0.546,1.893,0.976c0.48,0.43,0.723,1.021,0.723,1.776
				c0,1.015-0.431,1.828-1.289,2.438c-0.858,0.613-2.264,0.918-4.215,0.918c-1.433,0-2.799-0.228-4.1-0.682
				c-1.301-0.455-2.368-0.996-3.201-1.621l-1.249,2.187c0.859,0.728,2.043,1.334,3.552,1.815c1.51,0.481,3.11,0.721,4.803,0.721
				c1.795,0,3.324-0.239,4.586-0.721s2.225-1.158,2.889-2.031c0.664-0.871,0.995-1.905,0.995-3.102c0-1.119-0.241-2.025-0.722-2.714
				C92.152,133.432,91.516,132.899,90.721,132.521z"/>
			<path d="M105.426,140.309c-1.146,0-2.023-0.324-2.635-0.976c-0.611-0.649-0.918-1.573-0.918-2.772v-12.256h6.246v-2.303h-6.246
				v-4.529h-2.771v4.529h-3.669v2.303h3.669v12.412c0,1.9,0.521,3.371,1.562,4.412s2.523,1.561,4.449,1.561
				c0.807,0,1.594-0.116,2.362-0.35c0.767-0.236,1.425-0.6,1.971-1.094l-0.976-1.99
				C107.664,139.957,106.649,140.309,105.426,140.309z"/>
			<path d="M7.632,120.733c1.04-1.028,2.264-1.822,3.669-2.382c1.405-0.56,2.928-0.84,4.567-0.84c1.561,0,3.019,0.254,4.372,0.762
				s2.589,1.334,3.708,2.479l1.835-1.835c-1.197-1.327-2.668-2.321-4.411-2.985c-1.744-0.664-3.605-0.996-5.582-0.996
				c-2.056,0-3.956,0.346-5.699,1.035c-1.744,0.689-3.26,1.658-4.548,2.908s-2.29,2.719-3.005,4.41
				c-0.716,1.691-1.074,3.54-1.074,5.543c0,2.006,0.358,3.852,1.074,5.543c0.715,1.692,1.71,3.162,2.986,4.411
				c1.274,1.249,2.784,2.22,4.528,2.908c1.743,0.69,3.643,1.034,5.699,1.034c2.004,0,3.877-0.338,5.621-1.014
				c1.743-0.677,3.214-1.68,4.411-3.007l-1.835-1.834c-1.119,1.146-2.355,1.978-3.708,2.498s-2.811,0.781-4.372,0.781
				c-1.639,0-3.162-0.28-4.567-0.841c-1.405-0.559-2.629-1.352-3.669-2.381c-1.041-1.027-1.855-2.225-2.44-3.59
				c-0.586-1.367-0.878-2.869-0.878-4.51c0-1.639,0.292-3.143,0.878-4.508C5.777,122.958,6.591,121.762,7.632,120.733z"/>
			<path d="M43.896,123.133c-1.575-0.884-3.376-1.326-5.406-1.326c-2.004,0-3.787,0.442-5.348,1.326
				c-1.561,0.885-2.798,2.108-3.708,3.67c-0.911,1.562-1.367,3.371-1.367,5.426c0,2.029,0.456,3.832,1.367,5.406
				c0.91,1.576,2.153,2.811,3.728,3.709c1.574,0.897,3.35,1.346,5.328,1.346c2.003,0,3.799-0.448,5.387-1.346
				c1.587-0.898,2.83-2.133,3.728-3.709c0.897-1.574,1.346-3.377,1.346-5.406c0-2.055-0.449-3.864-1.346-5.426
				C46.707,125.241,45.469,124.018,43.896,123.133z M45.145,136.426c-0.663,1.209-1.568,2.146-2.713,2.81
				c-1.146,0.664-2.459,0.995-3.942,0.995c-1.432,0-2.72-0.331-3.865-0.995c-1.145-0.663-2.056-1.601-2.732-2.81
				c-0.677-1.211-1.015-2.609-1.015-4.197c0-1.613,0.338-3.018,1.015-4.215c0.676-1.197,1.587-2.129,2.732-2.791
				c1.145-0.664,2.446-0.996,3.904-0.996c1.457,0,2.758,0.332,3.903,0.996c1.145,0.662,2.05,1.594,2.713,2.791
				c0.664,1.197,0.996,2.602,0.996,4.215C46.141,133.816,45.809,135.215,45.145,136.426z"/>
			<polygon points="222.709,142.495 212.291,128.361 221.967,115.17 218.844,115.17 210.641,126.338 202.41,115.17 199.092,115.17 
				208.812,128.455 198.428,142.495 201.746,142.495 210.513,130.479 219.352,142.495 			"/>
			<rect x="188.709" y="128.952" width="10.228" height="2.42"/>
			<path d="M181.957,140.309c-1.146,0-2.023-0.324-2.636-0.976c-0.61-0.649-0.917-1.573-0.917-2.772v-12.256h6.246v-2.303h-6.246
				v-4.529h-2.771v4.529h-3.668v2.303h3.668v12.412c0,1.9,0.521,3.371,1.562,4.412s2.524,1.561,4.45,1.561
				c0.806,0,1.594-0.116,2.361-0.35c0.768-0.236,1.426-0.6,1.972-1.094l-0.976-1.99C184.194,139.957,183.18,140.309,181.957,140.309
				z"/>
			<path d="M143.516,132.736c0,1.561-0.28,2.902-0.84,4.021s-1.365,1.971-2.42,2.555c-1.054,0.587-2.297,0.88-3.728,0.88
				c-1.952,0-3.468-0.554-4.548-1.659s-1.62-2.752-1.62-4.938v-11.594h-2.771v11.905c0,1.952,0.356,3.578,1.072,4.879
				c0.717,1.302,1.725,2.278,3.026,2.929c1.3,0.65,2.823,0.975,4.567,0.975c1.82,0,3.414-0.422,4.781-1.268
				c1.102-0.682,1.959-1.591,2.596-2.704v3.777h2.654v-20.493h-2.771V132.736z"/>
			<path d="M116.004,126.008v-4.006h-2.654v20.493h2.771v-10.462c0-2.42,0.611-4.287,1.836-5.602
				c1.221-1.313,2.914-1.971,5.073-1.971c0.104,0,0.208,0.006,0.312,0.02c0.104,0.013,0.209,0.02,0.313,0.02v-2.693
				c-2.005,0-3.683,0.41-5.036,1.229C117.45,123.744,116.59,124.746,116.004,126.008z"/>
			<path d="M157.666,125.223c1.17-0.664,2.484-0.996,3.942-0.996c1.224,0,2.354,0.248,3.396,0.742s1.914,1.262,2.615,2.303
				l2.069-1.405c-0.808-1.353-1.913-2.368-3.317-3.045c-1.406-0.677-2.98-1.015-4.724-1.015c-2.03,0-3.845,0.442-5.446,1.326
				c-1.6,0.885-2.855,2.108-3.766,3.67c-0.912,1.562-1.367,3.371-1.367,5.426c0,2.029,0.455,3.832,1.367,5.406
				c0.91,1.576,2.166,2.811,3.766,3.709c1.602,0.897,3.416,1.346,5.446,1.346c1.743,0,3.317-0.344,4.724-1.034
				c1.404-0.688,2.51-1.698,3.317-3.024l-2.069-1.406c-0.701,1.016-1.574,1.771-2.615,2.265c-1.041,0.495-2.172,0.741-3.396,0.741
				c-1.458,0-2.772-0.331-3.942-0.995c-1.172-0.663-2.096-1.593-2.771-2.791c-0.678-1.196-1.016-2.603-1.016-4.216
				s0.338-3.018,1.016-4.215C155.57,126.816,156.494,125.885,157.666,125.223z"/>
		</g>
	</g>
</g>
</svg>
